<svg height="32" viewBox="0 0 215 32" width="215" xmlns="http://www.w3.org/2000/svg"><g fill="#192a42" fill-rule="evenodd" transform="translate(-1)"><path d="m28.2010125 16.5087972c.2925414-.7046623.4144924-1.4693409.3552792-2.2304891.0317214-1.9904239-.3017053-3.9688445-.9854769-5.83641141-.5921321-1.61761655-1.5176909-3.09048785-2.7139387-4.32258776-1.1666412-1.18832329-2.5778893-2.10339578-4.1336458-2.68096467-1.6784125-.62558196-3.4562185-.93484257-5.2453033-.91295426-2.0731672-.04095232-4.132236.35303722-6.04679635 1.15584387-1.72916664.74137816-3.28844777 1.83508748-4.58056455 3.21263873-1.25475606 1.38037554-2.22401988 2.99869817-2.85139791 4.76176607-.67178794 1.87039123-1.0094442 3.84669363-.99605074 5.83641133-.04229515 2.3921803.3461153 4.7730633 1.14478868 7.0261469.68588632 1.8965159 1.75454373 3.6278105 3.13759508 5.0851481 1.32101846 1.3711966 2.92400457 2.4324265 4.69546636 3.1088458 1.86098653.7145474 3.83828473 1.071115 5.82897633 1.0520509 1.0926247-.0028243 2.1831346-.0840228 3.2637756-.2428896 1.1313952-.1546303 2.2444625-.4257629 3.3208741-.8091613 1.0947394-.3869288 2.1401345-.9030692 3.1150376-1.5371241 1.0143787-.6517067 1.9258391-1.4545133 2.70266-2.380883l-2.0844459-2.6576642c-.1459182-.2231195-.3475251-.4038746-.5850829-.5239072-.2368528-.1193266-.5011975-.1736944-.7655421-.1581607-.4906238.0112972-.9692639.1553364-1.3858711.4158778-.4814597.2774873-1.0418705.578275-1.6720682.9129543-.7359355.369983-1.5021826.6757132-2.2902822.9129542-.9840672.2972574-2.0083147.4377662-3.0346769.416584-1.0926247.0162397-2.17961-.1673397-3.2066772-.5436774-.9460015-.3579797-1.8024782-.9221332-2.5081023-1.6522142-.74862408-.8141038-1.32524794-1.773659-1.69462557-2.8200613-.47018106-1.2963527-.7479192-2.655546-.82475539-4.0330972h18.70079976c.2523611.0345976.5089516.0014121.7443946-.0960262.2347381-.0967322.4405745-.2555989.5956567-.4589484zm-19.81175234-3.8255113c.19244293-1.9120496.99675566-3.70900907 2.29028224-5.11974582.6605093-.61993336 1.4373302-1.09935791 2.2860528-1.40932459.8480177-.30996669 1.7489044-.44341476 2.649791-.39328347.9699688-.01906401 1.9335932.16592749 2.8288405.54297125.7725914.33962181 1.4584777.853644 2.0040851 1.50252642.5251648.64605812.9149851 1.39308488 1.1447887 2.19589151.2692791.8677655.4046236 1.7715408.4011661 2.6809647z"/><path d="m62.2702478 1.1030295c-.2079511.00847289-.4130826.05154344-.6069354.1270934-.1853937.06990137-.3538694.18075506-.4920335.3233821-.1670659.18287328-.30523.38975309-.4123777.61287262l-7.7075859 15.27803888c-.2861971.5316741-.549132 1.0866486-.8127717 1.6642175-.2636398.5782749-.4927385 1.1558438-.7218372 1.7913108-.2403774-.6008693-.4807549-1.1551378-.732411-1.7447099-.2523611-.5895722-.5152959-1.1558439-.7902144-1.640917l-7.7188645-15.3945412c-.1071477-.22594382-.2502463-.43282363-.4236564-.61216654-.1367543-.13980274-.3002956-.24995036-.4807548-.3233821-.1945577-.07484389-.3996892-.11791443-.6069354-.1270934h-.8014931-5.3024017v30.26729334h6.1264522v-17.3814347-1.3175349l-.183279-1.4679288 8.0163404 15.5901238c.21782.4723638.5632304.8734141.9967557 1.1558439.4363449.2478321.9304933.3749255 1.4309858.369983h.950936c.5011975.0070607.9953458-.1207387 1.4309858-.369983.4370499-.2788994.7831652-.6806558.9967557-1.1558439l8.0163404-15.5555261c0 .4857792-.0916395.9708523-.1029182 1.4446283-.0119836.4737759 0 .9016571 0 1.3062377v17.4047351h6.1377309v-30.26799936h-5.4165986z"/><path d="m94.243688 3.93438803c-1.0926246-.94896405-2.3678233-1.66139317-3.7445304-2.09209858-1.7622979-.54367733-3.5979073-.80068843-5.439861-.76256041h-10.5815411v30.26799936h6.9512076v-10.1244015h3.6303335c1.8186914.0402463 3.6317434-.2132344 5.3707789-.7505571 1.385871-.4307054 2.6652993-1.1516074 3.7565141-2.115399.9854769-.881887 1.7439699-1.9925421 2.2099215-3.2359392.4870991-1.32742.7310011-2.7332142.7218372-4.1488935.0098688-1.33589284-.2312135-2.66119457-.7105585-3.90600382-.4631319-1.20385693-1.2054117-2.27709009-2.1641018-3.13214625m-5.2791394 10.68996717c-.5223451.4878974-1.1391493.8607047-1.8109372 1.0951214-.6724929.2351228-1.3851661.3262064-2.0943148.2690144h-3.6303335v-9.59272745h3.6303335c.776116-.01553363 1.5501172.09743828 2.2902823.33538537.592837.1878158 1.13351.51261004 1.5804287.9475519.4032137.38339843.7161978.85364401.9163949 1.37543303.2128855.60863617.3172136 1.25045785.3087545 1.89510385.0824756 1.3337746-.3440005 2.6484852-1.1906084 3.6751175"/><path d="m155.373782 19.5598155c-.387705-.3452704-.814886-.6439399-1.270969-.8896538.923444-.3424461 1.791904-.8218706 2.576479-1.4220339.726067-.5620353 1.363314-1.2320999 1.889889-1.9875996.508246-.7413781.895247-1.5611306 1.144788-2.4267778.61328-2.085744.520935-4.31835136-.26364-6.34478502-.453263-1.11559763-1.177919-2.09704111-2.107003-2.85465899-1.113067-.86847157-2.385446-1.50464464-3.74453-1.87250943-1.810938-.48789744-3.680383-.71807771-5.554058-.68136184h-9.745507v30.26729328h6.951207v-11.1983407h1.774987c.403214-.0395402.809247.0416584 1.167346.2322985.358099.1913462.652755.483661.848018.8423468l4.981663 8.7948633c.253066.435648.622444.7915095 1.065838 1.0266323.443394.2344167.942477.3396218 1.442264.3021998h6.298453l-6.378813-10.528276c-.300296-.4674213-.662624-.891066-1.076412-1.2596369m-2.347381-7.1306458c-.180459.5719203-.494853 1.090885-.916394 1.5138236-.468067.4504755-1.026363.7936277-1.637528 1.00545-.783165.2591293-1.604396.3805742-2.427741.3586858h-2.7943v-8.96855758h2.7943c1.422527-.10661724 2.83589.30290594 3.984908 1.15584387.43141.3897531.771181.87270802.993231 1.41285497.222049.54014695.320738 1.12336444.289722 1.70728804.003524.616403-.09305 1.2299817-.286198 1.8146113"/><path d="m167.455885 31.3475872h4.111088c.765542 0 1.499363-.3071424 2.040741-.8529379.541378-.5465016.845198-1.2871737.845198-2.0596192v-27.35544227h-6.997027z"/><path d="m117.204667.00550738h-.446919c-2.111938-.05719203-4.213302.31279098-6.181436 1.0887668-1.967429.77597581-3.761449 1.94170473-5.27491 3.42940359-1.514166 1.48699278-2.717463 3.26488824-3.538694 5.22918735-.821936 1.96429908-1.245592 4.07475558-1.245592 6.20710048 0 2.1323448.423656 4.2420953 1.245592 6.2063944.821231 1.9642991 2.024528 3.7429006 3.538694 5.2298934 1.513461 1.4869928 3.307481 2.6534278 5.27491 3.4294036 1.968134.7759758 4.069498 1.1459588 6.181436 1.0887668h.446919c2.111937.057192 4.214006-.312791 6.181436-1.0887668 1.968134-.7759758 3.761448-1.9424108 5.275614-3.4294036 1.513462-1.4869928 2.716759-3.2655943 3.538694-5.2298934.821231-1.9642991 1.244888-4.0740496 1.244888-6.2063944 0-2.1323449-.423657-4.2428014-1.244888-6.20710048-.821935-1.96429911-2.025232-3.74219457-3.538694-5.22918735-1.514166-1.48769886-3.30748-2.65342778-5.275614-3.42940359-1.96743-.77597582-4.069499-1.14595883-6.181436-1.0887668m-.21782 25.56413142c-1.892708.0409523-3.7544-.4871914-5.348222-1.5187661-1.593822-1.0308687-2.847168-2.5178615-3.600022-4.2703383-.752854-1.7531828-.970674-3.6927693-.626673-5.5716334.344001-1.8788642 1.234313-3.6115708 2.558152-4.97711882 1.324543-1.36554798 3.021283-2.3018027 4.87522-2.69014365 1.853233-.38834094 3.779777-.21041018 5.532911.51049183 1.753133.72160808 3.253201 1.95370799 4.309875 3.53884514 1.055969 1.5858432 1.620609 3.452704 1.620609 5.3633415-.004934 2.5122129-.982657 4.9241632-2.723807 6.7197105-1.741151 1.7962534-4.108269 2.8348889-6.598043 2.8956113"/><g transform="translate(180.442046 .058675)"><path d="m34.2294634 1.37966947c-.4328203-.43776616-.9467064-.78444871-1.5127564-1.02168973-.5660501-.23653493-1.1729855-.35797974-1.7855602-.35797974s-1.2188052.12144481-1.7848553.35797974c-.56605.23724102-1.0799361.58392357-1.5134613 1.02168973l-8.290554 8.33238454-8.6465381 8.72566799-10.6957381 10.7944662 1.28224791 1.3055316c.43282035.4377662.94741132.7851548 1.51346139 1.0216897.56534514.236535 1.17228052.3586859 1.78485525.3586859s1.21951011-.1221509 1.78556017-.3586859c.56534515-.2365349 1.07993612-.5839235 1.51275647-1.0216897l7.30578191-7.3728294 8.6352594-8.7143708 11.6459691-11.75331521z"/><path d="m24.8276749 18.4379338-1.1454936-1.1558438-4.5805645 4.6226694 1.2716741 1.2829373 7.3057819 7.3735354c.4328204.4377662.9474114.7844487 1.5127565 1.0216897.5660501.236535 1.1729855.3586858 1.7855602.3586858s1.2195101-.1221508 1.7855602-.3586858c.5653451-.237241 1.0799361-.5839235 1.5127564-1.0216897l1.2822479-1.3062377-10.695738-10.7937601z"/><path d="m11.7034905 14.4391518.21782.2195892 4.5805645-4.6226694-.3207382-.32408819-8.29125887-8.33238455c-.43141051-.43706008-.94459165-.78374263-1.50993679-1.02027757-.56464023-.23653494-1.17087069-.35868582-1.78203558-.35868582-.61186981 0-1.21739535.12215088-1.7827405.35868582-.56464022.23653494-1.07782136.58321749-1.50993679 1.02027757l-1.29423153 1.30623773 11.64667396 11.75331521z"/></g></g></svg>