<svg width="86" height="155" viewBox="0 0 86 155" fill="none" xmlns="http://www.w3.org/2000/svg">
<path d="M21.5 121.687L19.2604 120.299L17.0208 118.91C15.4531 117.985 13.2135 118.679 12.3177 120.299L0 155L22.3958 126.776C23.5156 124.925 23.0677 122.843 21.5 121.687Z" fill="#F8762E"/>
<path d="M63.1562 71.2537C63.6042 70.5597 63.8281 69.8657 64.276 69.403C83.0885 35.3955 86 0 86 0C86 0 58.0052 20.1269 39.1927 54.1343C38.7448 54.8284 38.5208 55.5224 38.0729 55.9851L10.526 58.0672C6.49478 59.2239 4.2552 63.3881 5.15103 67.5522L19.2604 97.6269C17.9167 101.791 16.7969 105.724 16.125 108.963C15.901 109.888 16.5729 111.045 17.6927 111.739L27.0989 117.291C28.2187 117.985 29.3385 117.985 30.0104 117.291C32.4739 114.978 35.1614 112.201 37.8489 108.731L69.875 106.418C73.9062 105.261 76.1458 101.097 75.25 96.9328L63.1562 71.2537ZM34.4896 69.1716L19.0364 69.6343V69.8657L26.2031 83.9776L22.8437 89.9925L12.5417 68.9403L15.0052 64.5448L37.625 63.3881L34.4896 69.1716ZM53.9739 47.8881C55.3177 45.5746 58.2292 44.6493 60.4687 46.0373C62.7083 47.4254 63.6042 50.4328 62.2604 52.7463C60.9167 55.0597 58.0052 55.9851 55.7656 54.597C53.3021 53.209 52.6302 50.2015 53.9739 47.8881ZM65.1719 100.403L42.5521 101.791L45.9114 95.7761L61.3646 95.3134V95.0821L54.1979 80.9701L57.5573 74.9552L67.8594 96.0075L65.1719 100.403Z" fill="#4D99E6"/>
</svg>
