<?xml version="1.0" encoding="utf-8"?>
<!-- Generator: Adobe Illustrator 25.2.3, SVG Export Plug-In . SVG Version: 6.00 Build 0)  -->
<svg version="1.1" id="Layer_1" xmlns="http://www.w3.org/2000/svg" xmlns:xlink="http://www.w3.org/1999/xlink" x="0px" y="0px"
	 viewBox="0 0 38.4 67" style="enable-background:new 0 0 38.4 67;" xml:space="preserve">
<style type="text/css">
	.st0{fill:#F8762E;}
	.st1{fill:#4D99E6;}
</style>
<path class="st0" d="M9.6,52.6l-1-0.6l-1-0.6c-0.7-0.4-1.7-0.1-2.1,0.6L0,67l10-12.2C10.5,54,10.3,53.1,9.6,52.6z"/>
<path class="st1" d="M28.2,30.8c0.2-0.3,0.3-0.6,0.5-0.8c8.4-14.7,9.7-30,9.7-30S25.9,8.7,17.5,23.4c-0.2,0.3-0.3,0.6-0.5,0.8
	L4.7,25.1c-1.8,0.5-2.8,2.3-2.4,4.1l6.3,13c-0.6,1.8-1.1,3.5-1.4,4.9c-0.1,0.4,0.2,0.9,0.7,1.2l4.2,2.4c0.5,0.3,1,0.3,1.3,0
	c1.1-1,2.3-2.2,3.5-3.7l14.3-1c1.8-0.5,2.8-2.3,2.4-4.1L28.2,30.8z M15.4,29.9l-6.9,0.2l0,0.1l3.2,6.1l-1.5,2.6l-4.6-9.1l1.1-1.9
	l10.1-0.5L15.4,29.9z M24.1,20.7c0.6-1,1.9-1.4,2.9-0.8c1,0.6,1.4,1.9,0.8,2.9c-0.6,1-1.9,1.4-2.9,0.8C23.8,23,23.5,21.7,24.1,20.7z
	 M29.1,43.4L19,44l1.5-2.6l6.9-0.2l0-0.1L24.2,35l1.5-2.6l4.6,9.1L29.1,43.4z"/>
</svg>
